<svg xmlns="http://www.w3.org/2000/svg" width="32" height="32" fill="none"><path fill="#81B3D3" d="M0 0h32v32H0z"/><path fill="#fff" d="M10.72 19.74c.03.03.04.05.04.07l.07.03c.6.66 1.3 1.28 2.07 1.85.77.55 1.66.85 2.66.89l.07.03h.1c.02 0 .04.01.07.04h.37l.3-.07a2.9 2.9 0 0 0 1.81-1.12l.07-.13.07-.14a3.85 3.85 0 0 0 .13-.79c0-.59-.27-1.09-.81-1.48a5.9 5.9 0 0 0-2.42-1.16 9.5 9.5 0 0 0-.65-.16h-.07l-.06-.03c-1.1-.26-2.16-.69-3.14-1.26a4.55 4.55 0 0 1-2-2.54c-.08-.23-.14-.46-.2-.69a7.68 7.68 0 0 1-.14-.99v-.79c.02-.18.05-.35.1-.53.07-.45.18-.89.34-1.32.16-.44.36-.83.61-1.18.73-1.17 1.66-2 2.8-2.51a8.92 8.92 0 0 1 4.49-.7l.95.1A13.15 13.15 0 0 1 23 6.91l-1.87 4.06c-.61-.44-1.26-.83-1.94-1.15a5 5 0 0 0-2.21-.5h-.28c-.52.07-1 .3-1.46.7-.45.37-.68.77-.68 1.21v.2c.02.07.06.13.1.2.05.15.13.3.24.43a2.88 2.88 0 0 0 1.46.92c.48.16.98.31 1.5.46a100.47 100.47 0 0 1 2.28.6 5.23 5.23 0 0 1 2.86 2.2c.64 1.02.97 2.1.99 3.24v.16c0 .14-.01.27-.03.4v.36a7.98 7.98 0 0 1-1.16 3.27 6.2 6.2 0 0 1-3.68 2.84l-1.22.3c-.34.06-.68.1-1.02.12a7.7 7.7 0 0 1-1 .07h-.37c-1.36-.04-2.7-.33-4.01-.86A12.57 12.57 0 0 1 8 23.97l2.72-4.23Z"/></svg>