<svg xmlns="http://www.w3.org/2000/svg" width="138" height="72" fill="none"><path fill="#81B3D3" d="M138 0H0l59.53 66.65a12.53 12.53 0 0 0 19.01 0L138 0Z"/><path fill="#23A9E1" d="m31.95.52 36.68 43L105.09.82 31.95.51Z"/><path fill="#fff" d="M90.22 12.74c-3.77 0-7.46.08-11.24.08 4.44-5.09 6.44-4.57 11.24-.08ZM59.76 16.72H79.5c-1.48-.88-4.95-5.23-6.88-3.61-.14.15-5.54-6.56-9.1-3.31-3.1 2.8-4.5-.37-8.05 1.84-3.92 2.65 2.36 4.2 4.29 5.08Z"/><path fill="#491213" d="M68.85 0H31.21v16.57l37.42 45.3.22-.3 37.5-44.48V0h-37.5ZM40.6 1.33h4.07v12.66L40.6 9.21V1.33Zm-.59 7.21-3.7-4.34V1.33h3.7v7.21Zm14.27-1.99-4.21-5.22h4.21v5.22Zm-4.88 2.8-4.14-8.02h4.14v8.02ZM45.2 2.5l4.06 7.88A29.13 29.13 0 0 0 45.2 14V2.5Zm4.8-.36 4.14 5.08c-.8.44-1.62.96-2.29 1.4-.66.44-1.25.88-1.85 1.32v-7.8Zm4.88-.15 3.55 3.1c-1.25.5-2.44 1.1-3.55 1.69v-4.8Zm4.15 2.87-4-3.53h4.44V4.7c-.22 0-.3.08-.44.15Zm14.12-3.53h3.7l-3.7 1.76V1.33Zm-4.29 0h3.26l-3.26 1.54V1.33ZM68.2 2.8l-3.11-1.47h3.1V2.8Zm-4.07.37-3.77-1.84h3.77v1.84Zm-4.14-1.4 3.47 1.7c-1.18.29-2.36.58-3.47.95V1.77Zm4.73 0 2.52 1.18c-.9.07-1.7.14-2.6.3V1.76h.08Zm7.7.07v1.4c-.82-.15-1.64-.22-2.52-.3l2.51-1.1Zm4.8-.07v2.72c-1.11-.37-2.3-.73-3.55-1.03l3.55-1.7Zm.52-.44h4.36l-4 3.53c-.14-.07-.22-.07-.36-.15V1.33Zm10.05 0h4.15l-4.15 8.02V1.33Zm-4.88 0h4.22L82.9 6.48V1.33Zm-.59.66v4.79c-1.1-.6-2.3-1.18-3.55-1.7l3.55-3.1Zm4.88.15v7.73c-.51-.37-1.1-.74-1.7-1.18a37.47 37.47 0 0 0-2.51-1.55l4.21-5Zm4.74.36v11.2c-.82-.74-2.15-1.99-4.07-3.39l4.07-7.8Zm.59 11.79V1.33h4.07v8.4l-4.07 4.56c.07.07 0 .07 0 0Zm4.66-12.96h3.7v3.46l-3.7 4.27V1.33Zm-61.39 0v2.13l-1.84-2.13h1.84Zm9.47 13.4.07.07s2.67-2.87 6.8-5.6c3.93-2.57 9.84-5.6 16.5-5.52 6.58 0 12.65 3.1 16.5 5.67 4.13 2.73 6.87 5.53 6.94 5.6l-2.88 3.32c-5.1.66-8.8 4.49-13.76 3.68-2.51-.44-2.58-1.84-3.32-3.32-.52-1.1-1.4-.95-2.6-1.4-1.03-.44-1.7-1.25-3.84-.8-1.85.44-2.07 3.3-4.44 3.16-1.25-.07-1.33-1.84-3.1-4.05-4.66-5.6-9.02-4.79-11.98.37l22.4 26.44-23.29-27.62Zm56.13-10.68V1.33h2.37l-2.37 2.72Z"/><path fill="#23A9E1" d="m65.6 52.22 3.03-4.79 2.96 4.79L68.63 57l-3.03-4.8Z"/><path fill="#fff" d="M48.44 23.79c.37.44.67.96.6 1.55-.08.44-.67 1.17-.23 1.32l1.63-2.06c-.45-.15-4-4.27-4-4.79-.81.44-1.55.89-2.36 1.25.15.52.96 0 1.4 0 .6.08 1.04.45 1.48.89-1.26 1.03-4.36 3.68-4.73 3.75-.15 0-.82-.44-.82-.07 0 .22.67.74.74.88.52.67 1.11 1.33 1.63 2 .45-.23-.07-.52.15-.9.22-.29 3.62-3.16 4.51-3.82ZM44.52 18.63c.3-.07.44.3.74-.07-.6-.74-1.18-1.4-1.77-2.14-.3-.29-.6-.66-.52 0 .07.45-4.51 4.2-4.8 4.28-.38.14-.6-.3-.82.07.51.66 1.1 1.25 1.62 1.91.15.23.37.45.52.67.22.22.15-.52.15-.44-.07-.37.37-.67.67-.89 1.1-.96 3.92-3.39 4.21-3.39ZM38.01 17.97c-1.33.37-2.73-.15-3.1-1.47-.37-1.33.44-2.8 1.55-3.54 1.04-.73 2.66-.73 3.25.6.23.58.15 1.24-.07 1.83-.15.37-.44.74.07.96.67-.81 1.26-1.62 1.93-2.43-.82-.44-1.11-1.25-1.7-1.91-.67-.81-1.56-1.55-2.6-1.7-2.14-.3-4.13 1.92-4.28 3.83-.08 1.1.3 2.06.89 2.95.59.73 1.4 1.18 1.77 2.06.22.07 2-.74 2.44-.96-.07-.07-.07-.15-.15-.22 0 0-.51.15 0 0ZM67.08 44.78c-.89-.59-2.96-3.46-3.4-3.9-.08-.08-.15-.22-.23-.3 0 0-.22.15-.14.15-.15.07.07.44-.08.66-.59.89-4.29 3.68-4.44 3.83-.44.3-.88-.15-1.1.22a41.2 41.2 0 0 0 2.21 2.65c.37.08.08-.58.15-.73.08-.3 1.92-1.77 2.59-2.36.22-.22.52.3.67.52.22.36.37.73.22 1.17-.08.3-.52.67-.22.89.44-.52 1.77-2.06 1.92-2.21.22-.22-.45 0-.37-.07a.8.8 0 0 1-.81 0c-.08-.08-.82-.81-.74-.89.3-.3.73-.73 1.1-.8.67-.16 1.19 1.1 1.26 1.54.08.44.08.88-.07 1.32-.08.3-.37.52 0 .67.52-.74 1.03-1.4 1.55-2.14.15-.15 0-.22-.07-.22.15 0-.08-.07 0 0ZM59.53 41.69a3.91 3.91 0 0 0 .6-5.38c-1.41-1.84-4-2.28-5.77-.81a3.9 3.9 0 0 0-.6 5.38c1.48 1.99 3.85 2.2 5.77.8.9-.66-.07.08 0 0Zm-.37-3.46a5.47 5.47 0 0 1-2.73 2.72c-1.33.52-2.3-.59-1.78-1.91a5.77 5.77 0 0 1 2.74-2.73c1.4-.52 2.3.66 1.77 1.92.08-.15-.3.66 0 0ZM54.8 30.93c.37.08.67.37.96 0-.52-.66-1.1-1.32-1.63-1.91-.44.22 0 .37-.14.74-.15.29-1.93.58-2.37.66.15-.44.67-1.92.89-2.06.37-.3.66.29.96-.08l-2-2.43c-.22-.3-.44-.73-.74-.51 0 0 0 1.1-.07 1.25-.07.15-.67 2.65-1.4 3.31-.38.3-1.63 1.4-2 1.55-.37.15-.6-.44-.89 0 .6.74 1.26 1.47 1.85 2.2.07.08.44.67.59.67.37.08.07-.66.07-.8.15-.3 1.85-2 2.6-2.14.88-.15 2.21-.52 3.32-.45.22.08-.3 0 0 0Z"/><path fill="#DC6243" d="M50.14 16.87c-2.96-.15-1.77-2.95.3-3.54 1.92-.59 5.99 1.25 7.24 2.5-2.07.67-4.73.52-6.95.67-.14-2.36-.74-1.55-.59.37ZM57.17 26.07c-6.36-.07-2.07-9.8.07-9.2 2.52.8 2.22 9.28-.07 9.2ZM61.68 22.9c-.6 1.85-1.78 2.22-1.63-.07.15-2.58 1.85-1.99 3.63-2.94 1.47-.81 2.29-3.83 4.88-2.07 1.18.81 2.51.15 2.88 1.33 0-.07-3.33 7.59-1.48 7.59-3.7 0-2.07-4.35-.66-7.3-1.34.67-3.55 4.94-1.78 5.6-.96 1.25-3.84 2.87-5.32 1.7-1.11-.81-.52-2.36-.52-3.83ZM64.71 29.98c-2.59.73-5.99-.89-1.85-1.7 2.59-.51 5.33.52 1.85 1.7.07 0-.07 0 0 0ZM67.96 29.9c-.51-1.25.45-2.65 2-1.62 1.33.89-.66 2.29-2 1.62ZM65.75 33.29c-1.78-.52-7.77-.44-3.85-2.06 1.26-.44 7.54.15 3.85 2.06ZM73.51 35.72c-1.03-.88-2.14-.96-3.1 0-1.34-2.43-6.14-1.62-8.44-1.99 1.19 3.02 10.95 3.61 11.54 2ZM72.1 37.56c-2.36-.07-4.95-.44-7.1.08 1.41.36 4.74 1.32 1.63 2.13 1.11 1.62 2.96 1.47 4.14.08-.51-.23-.73-.52-1.18-.81 1.18-.23 2.37-.89 2.52-1.48ZM74.77 34.69c-3.92-2.28-2.96-3.98.3-5.6 1.7-.8 5.4-3.83 6.95-2.87-2.44 2.87-4.88 5.67-7.25 8.47Z"/><path fill="#F49774" d="M71.96 29.31c-3.33-3.38 4.95-3.09 6.28-4.27.97.3 8-6.11 9.7-5.67-1.26 1.4-3.85 5.97-5.78 5.97-1.48 0-2.95-.22-4.06.8-1.63 1.55-4.37 2.29-6.14 3.17Z"/><path fill="#F4B1A4" d="M73.07 25.19c-1.85.96-3.55-2.87-.37-2.5 2.07.22 4.21-.15 6.14.14a6.43 6.43 0 0 1-5.77 2.36Z"/><path fill="#fff" d="M82.39 38.67c.14.44.22.95.14 1.47-.07.66-.74 2.14-1.62 1.7-.9-.45-1.63-1.26-2.37-1.92.6-.66 1.1-1.25 2.14-.96.3.08.52 0 .23-.22-.3-.15-2.3-1.47-2.44-1.33-.23.23.37.67.14 1.11-.14.3-.44.59-.66.88-.52-.44-1.4-.95-.81-1.7.36-.5.96-.87 1.55-.95.44-.07 1.33.3 1.48-.15-.82-.36-1.63-.73-2.44-1.17.14.59-2.44 3.31-3.04 4.05-.07.07-.51.44-.51.59 0 .3.44.07.51.07.37-.15 5.03 3.76 5.18 4.05.08.22-.15.44 0 .52 0 0 .15.14.22.14.3-.36 3.33-4.42 4-4.56-.6-.89-1.19-1.77-1.78-2.73-.44.22 0 .74.08 1.1ZM77.8 43.6c-1.55-.96-4.14.96-4.51 1.1-.74.37-1.33-.36-.96-1.1a2.25 2.25 0 0 1 1.7-.96c.22 0 .96.15 1.1 0 .08-.14.16-.14 0-.22-.66-.44-1.25-.88-1.91-1.25-.15.81-1.04 1.25-1.56 1.77-.59.66-1.1 1.4-1.1 2.36 0 .8.51 1.54 1.25 1.98.81.45 1.7.08 2.44-.36.44-.3.96-.67 1.4-.89.75-.37 1.7-.07 1.48.96a2.55 2.55 0 0 1-1.77 1.7 2.3 2.3 0 0 1-1.4-.08c-.3-.07-.74-.52-.9-.07.9.59 1.7 1.25 2.6 1.84.07-.6.37-.81.8-1.18a9.86 9.86 0 0 0 1.49-1.55c.89-1.25 1.18-3.02-.15-4.05ZM77.8 43.6c-.44-.37.74.44 0 0ZM104.94 14.44c-.52.51-6.21-1.7-6.65-2.07-.23-.07-.23-.95-.52-.59l-.89 1.1c-.3.38-.6.75-.96 1.11-.22.22-.37.37 0 .52.6-.3 4 5.38 3.7 6.26-.52.3-5.1-3.76-5.25-3.98-.08-.07.22-.73-.15-.66-.15 0-.52.66-.67.81-.22.3-.44.52-.66.81.22.37.37 0 .74 0 .3.07 1.33.96 1.62 1.25-.51 0-2 .08-2.14.08-.67.07-.3-.52-.74-.67-.6.67-1.11 1.33-1.7 2.07-.3.36-.67.8-.96 1.17-.08.08 0 0 0 .08.22.22.07.14.44 0 .37-.15 4.88 3.6 5.03 3.83.3.3-.15.73.3.88.44-.51.88-1.1 1.33-1.62.07-.07.07-.07 0-.15-.3-.3-.37.15-.74.15-.37-.07-3.26-2.5-4.37-3.39 1.34-.07 5.4-.22 6.07-.22.22 0 .81.66.81.89-.07.29-.37.44.08.58.37-.44.74-.8 1.1-1.25l.15-.22c.08-.07.08-.07.15-.22l.15-.15c.3-.36 1.33-1.47 1.18-1.54-.37-.3-.52.36-.96-.08a8.71 8.71 0 0 1-1.03-1.62c-.23-.3.44-.66.73-.8.6-.38 2.37-.9 2.6.21 0 .22-.23.37-.08.52 0 0 .15.15.22.15.15-.15 1.78-2.07 2.44-2.95-.22-.15-.3-.22-.37-.3Zm-5.47 1.62c.07 0 .15-.08 0 0-.22.14-.52.36-.74.59-.37-.67-.74-1.33-1.18-2 .88.37 1.77.74 2.59 1.11-.15.08-.37.15-.67.3ZM92.3 24.3c-1.78-1.47-4.15-1.03-5.62.6a3.95 3.95 0 0 0 .44 5.6 4.08 4.08 0 0 0 5.62-.6c1.4-1.7 1.33-4.2-.44-5.6Zm-.23 4.87s0 .07 0 0c-.96.95-2.51.07-3.32-.52-.82-.59-2.3-1.91-1.4-3.02.8-.96 2.28-.15 3.1.37.88.59 2.51 1.91 1.7 3.1.07-.08.07-.08-.08.07Z"/><path fill="#fff" d="M92.3 24.3c-.23-.14.88.74 0 0ZM92.07 29.24c0-.07 0-.07 0 0l.08-.07c-.08 0-.08.07-.08.07ZM87.41 31c.08.08.23.23 0 0-2.14-1.61-4.65-1.17-6.28.82l-2.22 2.65c.3.37.6-.07.96.15.3.22 4.59 3.75 4.66 3.97.15.37-.22.37.07.67.15.07 3.33-3.83 3.63-4.57.66-1.33.22-2.73-.82-3.68Zm-.96 5.02c-.14.22 0 .07-.51.51-.23.22-4.74-3.46-4.59-3.6.6-.67 1.92-1.19 2.66-.97 1.63.37 3.85 2.36 2.44 4.06Z"/></svg>