<svg xmlns="http://www.w3.org/2000/svg" width="75" height="72" fill="none"><path fill="#81B3D2" d="M29.62 64.94h16.06V41.17H29.62v23.77Zm13.15-2.89H32.53v-18h10.14v18h.1Z"/><path fill="#81B3D2" d="M72.9 39.18 75 37.1l-9.94-9.84V.4H51.2v13.12L37.45 0 0 37.2l2.1 2.08 7.84-7.76v37.6H6.02V72h64.16v-2.88h-5.12v-37.7l7.83 7.76ZM54.11 3.38h7.93v20.98l-7.93-7.85V3.38Zm8.03 65.64h-49.2V28.54l24.5-24.36 24.6 24.36v40.48h.1Z"/><path fill="#81B3D2" d="M29.92 27.05a7.78 7.78 0 0 0 15.56 0 7.72 7.72 0 0 0-7.83-7.66 7.63 7.63 0 0 0-7.73 7.66Zm7.73-4.97a5.01 5.01 0 0 1 5.02 4.97 5.01 5.01 0 0 1-10.04 0c0-2.69 2.31-4.97 5.02-4.97ZM19.98 41.17h-3.01v3.88h3.01v-3.88ZM25.9 41.17h-3v3.88h3v-3.88ZM19.98 47.14h-3.01v3.88h3.01v-3.88ZM25.9 47.14h-3v3.88h3v-3.88ZM52 41.17h-3v3.88h3v-3.88ZM58.03 41.17h-3.01v3.88h3.01v-3.88ZM52 47.14h-3v3.88h3v-3.88ZM58.03 47.14h-3.01v3.88h3.01v-3.88Z"/></svg>