<svg xmlns="http://www.w3.org/2000/svg" width="64" height="75" fill="none"><path fill="#81B3D2" d="M61.16 22.12h-24.8c13.82-6.8 14.94-11.1 14.43-13.5-1.11-3.9-5.69-6.9-9.95-5.3-5.59 2.1-7.11 10.3-8.64 16.2-1.93-6-3.76-13.6-8.12-17.5a7.47 7.47 0 0 0-5.8-2c-4.06.4-9.85 5.3-7.41 10.8 2.23 5.3 9.65 8.7 14.63 11.4H2.84A2.82 2.82 0 0 0 0 25.02v11.2c0 1.6 1.32 2.8 2.84 2.8h.3V75h57.91V39.01h.1c1.63 0 2.85-1.3 2.85-2.8v-11.2a2.9 2.9 0 0 0-2.84-2.9Zm-18.7-16.3c2.14-.3 4.98 1.3 5.29 3.2.4 2.7-3.36 5.2-5.08 6.3-2.54 1.7-4.98 2.6-7.32 4 .82-3.7 2.54-12.9 7.11-13.5Zm-22.96 9.8c-2.23-1.5-6.5-4.4-6.4-7.7.1-3.6 5.8-6.5 8.84-3.8 3.86 3.3 5.7 11 7.11 16.4-3.25-1.6-6.3-2.8-9.55-4.9Zm6 56.38H6.1V39.01h19.4v33Zm0-35.99H3.05v-10.9H25.5v10.9Zm10.16 36h-7.22V25.1h7.22v46.9ZM58 72H38.7V39h19.4v33H58Zm2.94-36H38.7v-10.9h22.25v10.9Z"/></svg>