<svg xmlns="http://www.w3.org/2000/svg" width="76" height="68" fill="none"><path fill="#81B3D2" d="M71.71 45.33H4.3A4.3 4.3 0 0 0 0 49.57v3.45c0 2.27 1.9 4.14 4.29 4.14h1v.98a9.84 9.84 0 0 0 9.87 9.76h45.68a9.84 9.84 0 0 0 9.87-9.76v-.98h1A4.3 4.3 0 0 0 76 52.92v-3.45c0-2.17-1.9-4.14-4.29-4.14Zm-3.89 12.81c0 3.75-3.09 6.8-6.88 6.8H15.06a6.85 6.85 0 0 1-6.88-6.8v-.98h59.64v.98Zm5.19-5.22c0 .7-.6 1.28-1.3 1.28H4.3c-.7 0-1.3-.59-1.3-1.28v-3.45c0-.59.6-1.18 1.3-1.18H71.8c.7 0 1.3.59 1.3 1.28v3.35H73ZM16.16 37.35l5.38 3.94 5.49-3.94 5.48 3.94L38 37.35l5.39 3.94 5.48-3.94 5.49 3.94 5.48-3.94 5.49 3.94 6.28-4.63-1.7-2.37-4.58 3.26-5.49-3.95-5.48 3.95-5.49-3.95-5.48 3.95L38 33.6l-5.49 3.95-5.48-3.95-5.49 3.95-5.38-3.95-5.49 3.95-4.59-3.26-1.8 2.37 6.4 4.63 5.48-3.94ZM70.71 30.65c0-.6.1-2.56 0-2.96C70.01 12.32 55.65 0 38 0S5.88 12.32 5.19 27.7v2.95H70.7ZM38 2.95C53.96 2.96 67.12 14 67.72 27.7H8.18C8.88 14 22.04 2.96 38 2.96Z"/><path fill="#81B3D2" d="M38 16.75c1.1 0 2-.88 2-1.97 0-1.09-.9-1.97-2-1.97s-2 .88-2 1.97c0 1.1.9 1.97 2 1.97ZM30.02 11.92c1.1 0 2-.88 2-1.97 0-1.09-.9-1.97-2-1.97s-2 .88-2 1.97c0 1.1.9 1.97 2 1.97ZM45.98 11.92c1.1 0 2-.88 2-1.97 0-1.09-.9-1.97-2-1.97s-2 .88-2 1.97c0 1.1.9 1.97 2 1.97Z"/></svg>